<?xml version="1.0" encoding="UTF-8"?>
<svg width="300" height="200" viewBox="0 0 300 200" xmlns="http://www.w3.org/2000/svg">
  <!-- Dumbbell -->
  <g id="dumbbell" transform="translate(40,50)">
    <!-- Left Weight -->
    <circle cx="20" cy="50" r="20" fill="#455A64"/>
    <!-- Bar -->
    <rect x="20" y="45" width="60" height="10" fill="#607D8B"/>
    <!-- Right Weight -->
    <circle cx="80" cy="50" r="20" fill="#455A64"/>
    <!-- Shine -->
    <circle cx="15" cy="45" r="5" fill="#FFFFFF" opacity="0.3"/>
    <circle cx="75" cy="45" r="5" fill="#FFFFFF" opacity="0.3"/>
  </g>

  <!-- Feather -->
  <g id="feather" transform="translate(180,50)">
    <!-- Main feather shape -->
    <path d="
      M 20,20
      C 40,30 60,40 80,20
      C 70,40 50,60 30,80
      C 20,70 10,50 20,20
      Z" 
      fill="#E0E0E0" 
      stroke="#BDBDBD" 
      stroke-width="1"
    />
    <!-- Feather details -->
    <path d="M 30,70 C 40,60 50,50 60,40" fill="none" stroke="#BDBDBD"/>
    <path d="M 25,60 C 35,50 45,40 55,30" fill="none" stroke="#BDBDBD"/>
    <path d="M 35,75 C 45,65 55,55 65,45" fill="none" stroke="#BDBDBD"/>
  </g>
</svg> 